<mxfile host="c6b287f2-c0ec-435d-90b1-af5c9b6defdd" modified="2020-09-24T04:19:40.903Z" agent="5.0 (X11; Linux x86_64) AppleWebKit/537.36 (KHTML, like Gecko) Code/1.49.1 Chrome/83.0.4103.122 Electron/9.2.1 Safari/537.36" etag="1XUub9BAx6lp3woPEczx" version="13.1.3">
    <diagram id="RjcjVuEInLvihBYfl9KC" name="Page-1">
        <mxGraphModel dx="1676" dy="1016" grid="0" gridSize="10" guides="1" tooltips="1" connect="1" arrows="1" fold="1" page="1" pageScale="1" pageWidth="1600" pageHeight="900" background="none" math="0" shadow="0">
            <root>
                <mxCell id="0"/>
                <mxCell id="1" parent="0"/>
                <mxCell id="14" value="cacher" style="swimlane;strokeColor=#432D57;fillColor=#76608a;fontColor=#ffffff;strokeWidth=2;" parent="1" vertex="1">
                    <mxGeometry x="40" y="40" width="80" height="40" as="geometry">
                        <mxRectangle x="420" y="20" width="70" height="23" as="alternateBounds"/>
                    </mxGeometry>
                </mxCell>
                <mxCell id="19" style="edgeStyle=orthogonalEdgeStyle;rounded=0;orthogonalLoop=1;jettySize=auto;html=1;exitX=1;exitY=0.5;exitDx=0;exitDy=0;fillColor=#e51400;strokeColor=#B20000;entryX=0;entryY=0.5;entryDx=0;entryDy=0;strokeWidth=2;" edge="1" parent="1" source="15" target="16">
                    <mxGeometry relative="1" as="geometry">
                        <mxPoint x="360" y="120" as="targetPoint"/>
                        <Array as="points">
                            <mxPoint x="320" y="100"/>
                            <mxPoint x="320" y="100"/>
                        </Array>
                    </mxGeometry>
                </mxCell>
                <mxCell id="31" style="edgeStyle=orthogonalEdgeStyle;rounded=0;orthogonalLoop=1;jettySize=auto;html=1;exitX=0.25;exitY=1;exitDx=0;exitDy=0;entryX=0;entryY=0;entryDx=0;entryDy=0;fillColor=#e51400;strokeColor=#B20000;strokeWidth=2;" edge="1" parent="1" source="15" target="27">
                    <mxGeometry relative="1" as="geometry">
                        <mxPoint x="330" y="260" as="targetPoint"/>
                        <Array as="points">
                            <mxPoint x="200" y="120"/>
                        </Array>
                    </mxGeometry>
                </mxCell>
                <mxCell id="15" value="ros2_depender" style="swimlane;strokeColor=#B20000;fillColor=#e51400;fontColor=#ffffff;strokeWidth=2;" vertex="1" parent="1">
                    <mxGeometry x="160" y="80" width="120" height="40" as="geometry">
                        <mxRectangle x="240" y="160" width="70" height="23" as="alternateBounds"/>
                    </mxGeometry>
                </mxCell>
                <mxCell id="22" style="edgeStyle=orthogonalEdgeStyle;rounded=0;orthogonalLoop=1;jettySize=auto;html=1;exitX=1;exitY=0.5;exitDx=0;exitDy=0;fillColor=#e51400;strokeColor=#B20000;strokeWidth=2;entryX=0;entryY=0.5;entryDx=0;entryDy=0;" edge="1" parent="1" source="16" target="17">
                    <mxGeometry relative="1" as="geometry">
                        <mxPoint x="470" y="10" as="targetPoint"/>
                        <Array as="points"/>
                    </mxGeometry>
                </mxCell>
                <mxCell id="32" style="edgeStyle=orthogonalEdgeStyle;rounded=0;orthogonalLoop=1;jettySize=auto;html=1;entryX=0;entryY=0;entryDx=0;entryDy=0;fillColor=#e51400;strokeColor=#B20000;exitX=0.25;exitY=1;exitDx=0;exitDy=0;strokeWidth=2;" edge="1" parent="1" source="16" target="29">
                    <mxGeometry relative="1" as="geometry">
                        <mxPoint x="480" y="120" as="sourcePoint"/>
                        <Array as="points">
                            <mxPoint x="360" y="120"/>
                        </Array>
                    </mxGeometry>
                </mxCell>
                <mxCell id="16" value="underlay_depender" style="swimlane;strokeColor=#B20000;fillColor=#e51400;fontColor=#ffffff;strokeWidth=2;" vertex="1" parent="1">
                    <mxGeometry x="320" y="80" width="120" height="40" as="geometry">
                        <mxRectangle x="420" y="20" width="70" height="23" as="alternateBounds"/>
                    </mxGeometry>
                </mxCell>
                <mxCell id="33" style="edgeStyle=orthogonalEdgeStyle;rounded=0;orthogonalLoop=1;jettySize=auto;html=1;exitX=0.25;exitY=1;exitDx=0;exitDy=0;entryX=0;entryY=0;entryDx=0;entryDy=0;fillColor=#e51400;strokeColor=#B20000;strokeWidth=2;" edge="1" parent="1" source="17" target="30">
                    <mxGeometry relative="1" as="geometry">
                        <mxPoint x="810" y="170" as="targetPoint"/>
                        <Array as="points">
                            <mxPoint x="520" y="120"/>
                        </Array>
                    </mxGeometry>
                </mxCell>
                <mxCell id="17" value="overlay_depender" style="swimlane;strokeColor=#B20000;fillColor=#e51400;fontColor=#ffffff;strokeWidth=2;" vertex="1" parent="1">
                    <mxGeometry x="480" y="80" width="120" height="40" as="geometry">
                        <mxRectangle x="420" y="20" width="70" height="23" as="alternateBounds"/>
                    </mxGeometry>
                </mxCell>
                <mxCell id="76" style="edgeStyle=orthogonalEdgeStyle;rounded=0;orthogonalLoop=1;jettySize=auto;html=1;exitX=1;exitY=0.5;exitDx=0;exitDy=0;entryX=0;entryY=0.5;entryDx=0;entryDy=0;dashed=1;fillColor=#fa6800;strokeColor=#C73500;strokeWidth=2;dashPattern=1 1;" edge="1" parent="1" source="27" target="29">
                    <mxGeometry relative="1" as="geometry"/>
                </mxCell>
                <mxCell id="27" value="ros2_builder" style="swimlane;strokeColor=#C73500;fillColor=#fa6800;fontColor=#ffffff;strokeWidth=2;" vertex="1" parent="1">
                    <mxGeometry x="200" y="160" width="120" height="40" as="geometry">
                        <mxRectangle x="420" y="20" width="70" height="23" as="alternateBounds"/>
                    </mxGeometry>
                </mxCell>
                <mxCell id="77" style="edgeStyle=orthogonalEdgeStyle;rounded=0;orthogonalLoop=1;jettySize=auto;html=1;exitX=1;exitY=0.5;exitDx=0;exitDy=0;entryX=0;entryY=0.5;entryDx=0;entryDy=0;dashed=1;fillColor=#fa6800;strokeColor=#C73500;strokeWidth=2;dashPattern=1 1;" edge="1" parent="1" source="29" target="30">
                    <mxGeometry relative="1" as="geometry"/>
                </mxCell>
                <mxCell id="29" value="underlay_builder" style="swimlane;strokeColor=#C73500;fillColor=#fa6800;fontColor=#ffffff;strokeWidth=2;" vertex="1" parent="1">
                    <mxGeometry x="360" y="160" width="120" height="40" as="geometry">
                        <mxRectangle x="420" y="20" width="70" height="23" as="alternateBounds"/>
                    </mxGeometry>
                </mxCell>
                <mxCell id="81" style="edgeStyle=orthogonalEdgeStyle;rounded=0;orthogonalLoop=1;jettySize=auto;html=1;exitX=1;exitY=0.5;exitDx=0;exitDy=0;entryX=0;entryY=0;entryDx=0;entryDy=0;strokeColor=#C73500;fillColor=#fa6800;strokeWidth=2;" edge="1" parent="1" source="30" target="49">
                    <mxGeometry relative="1" as="geometry"/>
                </mxCell>
                <mxCell id="30" value="overlay_builder" style="swimlane;strokeColor=#C73500;fillColor=#fa6800;fontColor=#ffffff;strokeWidth=2;" vertex="1" parent="1">
                    <mxGeometry x="520" y="160" width="120" height="40" as="geometry">
                        <mxRectangle x="420" y="20" width="70" height="23" as="alternateBounds"/>
                    </mxGeometry>
                </mxCell>
                <mxCell id="57" style="edgeStyle=orthogonalEdgeStyle;rounded=0;orthogonalLoop=1;jettySize=auto;html=1;exitX=0.5;exitY=1;exitDx=0;exitDy=0;entryX=0;entryY=0.5;entryDx=0;entryDy=0;dashed=1;fillColor=#e3c800;strokeColor=#B09500;strokeWidth=2;dashPattern=1 1;" edge="1" parent="1" source="40" target="49">
                    <mxGeometry relative="1" as="geometry">
                        <Array as="points">
                            <mxPoint x="300" y="300"/>
                        </Array>
                    </mxGeometry>
                </mxCell>
                <mxCell id="40" value="ros2_tester" style="swimlane;strokeColor=#BD7000;fillColor=#f0a30a;fontColor=#ffffff;strokeWidth=2;" vertex="1" parent="1">
                    <mxGeometry x="240" y="240" width="120" height="40" as="geometry">
                        <mxRectangle x="420" y="20" width="70" height="23" as="alternateBounds"/>
                    </mxGeometry>
                </mxCell>
                <mxCell id="56" style="edgeStyle=orthogonalEdgeStyle;rounded=0;orthogonalLoop=1;jettySize=auto;html=1;exitX=0.5;exitY=1;exitDx=0;exitDy=0;entryX=0;entryY=0.5;entryDx=0;entryDy=0;dashed=1;fillColor=#e3c800;strokeColor=#B09500;strokeWidth=2;dashPattern=1 1;" edge="1" parent="1" source="42" target="49">
                    <mxGeometry relative="1" as="geometry">
                        <Array as="points">
                            <mxPoint x="460" y="300"/>
                        </Array>
                    </mxGeometry>
                </mxCell>
                <mxCell id="42" value="underlay_tester" style="swimlane;strokeColor=#BD7000;fillColor=#f0a30a;fontColor=#ffffff;strokeWidth=2;" vertex="1" parent="1">
                    <mxGeometry x="400" y="240" width="120" height="40" as="geometry">
                        <mxRectangle x="420" y="20" width="70" height="23" as="alternateBounds"/>
                    </mxGeometry>
                </mxCell>
                <mxCell id="54" style="edgeStyle=orthogonalEdgeStyle;rounded=0;orthogonalLoop=1;jettySize=auto;html=1;exitX=0.5;exitY=1;exitDx=0;exitDy=0;entryX=0;entryY=0.5;entryDx=0;entryDy=0;dashed=1;fillColor=#e3c800;strokeColor=#B09500;strokeWidth=2;dashPattern=1 1;" edge="1" parent="1" source="43" target="49">
                    <mxGeometry relative="1" as="geometry"/>
                </mxCell>
                <mxCell id="43" value="overlay_tester" style="swimlane;strokeColor=#BD7000;fillColor=#f0a30a;fontColor=#ffffff;strokeWidth=2;" vertex="1" parent="1">
                    <mxGeometry x="560" y="240" width="120" height="40" as="geometry">
                        <mxRectangle x="420" y="20" width="70" height="23" as="alternateBounds"/>
                    </mxGeometry>
                </mxCell>
                <mxCell id="44" style="edgeStyle=orthogonalEdgeStyle;rounded=0;orthogonalLoop=1;jettySize=auto;html=1;entryX=0;entryY=0;entryDx=0;entryDy=0;exitX=0.25;exitY=1;exitDx=0;exitDy=0;fillColor=#fa6800;strokeColor=#C73500;strokeWidth=2;" edge="1" target="40" parent="1" source="27">
                    <mxGeometry relative="1" as="geometry">
                        <mxPoint x="300" y="270" as="sourcePoint"/>
                        <Array as="points">
                            <mxPoint x="240" y="200"/>
                        </Array>
                    </mxGeometry>
                </mxCell>
                <mxCell id="46" style="edgeStyle=orthogonalEdgeStyle;rounded=0;orthogonalLoop=1;jettySize=auto;html=1;entryX=0;entryY=0;entryDx=0;entryDy=0;exitX=0.25;exitY=1;exitDx=0;exitDy=0;fillColor=#fa6800;strokeColor=#C73500;strokeWidth=2;" edge="1" target="43" parent="1" source="30">
                    <mxGeometry relative="1" as="geometry">
                        <mxPoint x="780" y="170" as="sourcePoint"/>
                        <Array as="points">
                            <mxPoint x="560" y="200"/>
                        </Array>
                    </mxGeometry>
                </mxCell>
                <mxCell id="47" value="overlay_shipper" style="swimlane;strokeColor=#3A5431;fillColor=#6d8764;fontColor=#ffffff;strokeWidth=2;" vertex="1" parent="1">
                    <mxGeometry x="760" y="180" width="120" height="40" as="geometry">
                        <mxRectangle x="420" y="20" width="70" height="23" as="alternateBounds"/>
                    </mxGeometry>
                </mxCell>
                <mxCell id="49" value="workspaces_tester" style="swimlane;strokeColor=#314354;fillColor=#647687;fontColor=#ffffff;strokeWidth=2;" vertex="1" parent="1">
                    <mxGeometry x="720" y="280" width="120" height="40" as="geometry">
                        <mxRectangle x="420" y="20" width="70" height="23" as="alternateBounds"/>
                    </mxGeometry>
                </mxCell>
                <mxCell id="59" style="edgeStyle=orthogonalEdgeStyle;rounded=0;orthogonalLoop=1;jettySize=auto;html=1;exitX=1;exitY=0.5;exitDx=0;exitDy=0;entryX=0.5;entryY=0;entryDx=0;entryDy=0;dashed=1;fillColor=#76608a;strokeColor=#432D57;strokeWidth=2;dashPattern=1 1;" edge="1" parent="1" source="14" target="27">
                    <mxGeometry relative="1" as="geometry">
                        <mxPoint x="90" y="10" as="sourcePoint"/>
                        <mxPoint x="730" y="50" as="targetPoint"/>
                        <Array as="points">
                            <mxPoint x="140" y="60"/>
                            <mxPoint x="140" y="140"/>
                            <mxPoint x="260" y="140"/>
                        </Array>
                    </mxGeometry>
                </mxCell>
                <mxCell id="60" style="edgeStyle=orthogonalEdgeStyle;rounded=0;orthogonalLoop=1;jettySize=auto;html=1;exitX=1;exitY=0.5;exitDx=0;exitDy=0;entryX=0.5;entryY=0;entryDx=0;entryDy=0;dashed=1;fillColor=#76608a;strokeColor=#432D57;strokeWidth=2;dashPattern=1 1;" edge="1" parent="1" source="14" target="29">
                    <mxGeometry relative="1" as="geometry">
                        <mxPoint x="90" y="10" as="sourcePoint"/>
                        <mxPoint x="330" y="210" as="targetPoint"/>
                        <Array as="points">
                            <mxPoint x="140" y="60"/>
                            <mxPoint x="140" y="140"/>
                            <mxPoint x="420" y="140"/>
                        </Array>
                    </mxGeometry>
                </mxCell>
                <mxCell id="61" style="edgeStyle=orthogonalEdgeStyle;rounded=0;orthogonalLoop=1;jettySize=auto;html=1;exitX=1;exitY=0.5;exitDx=0;exitDy=0;entryX=0.5;entryY=0;entryDx=0;entryDy=0;dashed=1;fillColor=#76608a;strokeColor=#432D57;strokeWidth=2;dashPattern=1 1;" edge="1" parent="1" source="14" target="30">
                    <mxGeometry relative="1" as="geometry">
                        <mxPoint x="90" y="10" as="sourcePoint"/>
                        <mxPoint x="570" y="210" as="targetPoint"/>
                        <Array as="points">
                            <mxPoint x="140" y="60"/>
                            <mxPoint x="140" y="140"/>
                            <mxPoint x="580" y="140"/>
                        </Array>
                    </mxGeometry>
                </mxCell>
                <mxCell id="63" style="edgeStyle=orthogonalEdgeStyle;rounded=0;orthogonalLoop=1;jettySize=auto;html=1;exitX=0.25;exitY=1;exitDx=0;exitDy=0;entryX=0;entryY=0;entryDx=0;entryDy=0;fillColor=#fa6800;strokeColor=#C73500;strokeWidth=2;" edge="1" parent="1" source="29" target="42">
                    <mxGeometry relative="1" as="geometry">
                        <mxPoint x="610" y="210" as="sourcePoint"/>
                        <mxPoint x="690" y="210" as="targetPoint"/>
                        <Array as="points">
                            <mxPoint x="400" y="200"/>
                        </Array>
                    </mxGeometry>
                </mxCell>
                <mxCell id="64" style="edgeStyle=orthogonalEdgeStyle;rounded=0;orthogonalLoop=1;jettySize=auto;html=1;exitX=1;exitY=0.5;exitDx=0;exitDy=0;dashed=1;entryX=0.5;entryY=0;entryDx=0;entryDy=0;fillColor=#76608a;strokeColor=#432D57;strokeWidth=2;dashPattern=1 1;" edge="1" parent="1" source="14" target="15">
                    <mxGeometry relative="1" as="geometry">
                        <mxPoint x="130" y="170" as="sourcePoint"/>
                        <mxPoint x="240" y="80" as="targetPoint"/>
                        <Array as="points">
                            <mxPoint x="220" y="60"/>
                        </Array>
                    </mxGeometry>
                </mxCell>
                <mxCell id="66" style="edgeStyle=orthogonalEdgeStyle;rounded=0;orthogonalLoop=1;jettySize=auto;html=1;exitX=1;exitY=0.5;exitDx=0;exitDy=0;dashed=1;entryX=0.5;entryY=0;entryDx=0;entryDy=0;fillColor=#76608a;strokeColor=#432D57;strokeWidth=2;dashPattern=1 1;" edge="1" parent="1" source="14" target="16">
                    <mxGeometry relative="1" as="geometry">
                        <mxPoint x="130" y="170" as="sourcePoint"/>
                        <mxPoint x="520" y="20" as="targetPoint"/>
                        <Array as="points">
                            <mxPoint x="380" y="60"/>
                        </Array>
                    </mxGeometry>
                </mxCell>
                <mxCell id="67" style="edgeStyle=orthogonalEdgeStyle;rounded=0;orthogonalLoop=1;jettySize=auto;html=1;exitX=1;exitY=0.5;exitDx=0;exitDy=0;dashed=1;entryX=0.5;entryY=0;entryDx=0;entryDy=0;fillColor=#76608a;strokeColor=#432D57;strokeWidth=2;dashPattern=1 1;" edge="1" parent="1" source="14" target="17">
                    <mxGeometry relative="1" as="geometry">
                        <mxPoint x="130" y="170" as="sourcePoint"/>
                        <mxPoint x="760" y="30" as="targetPoint"/>
                        <Array as="points">
                            <mxPoint x="540" y="60"/>
                        </Array>
                    </mxGeometry>
                </mxCell>
                <mxCell id="82" style="edgeStyle=orthogonalEdgeStyle;rounded=0;orthogonalLoop=1;jettySize=auto;html=1;exitX=1;exitY=0.5;exitDx=0;exitDy=0;entryX=0;entryY=0;entryDx=0;entryDy=0;strokeColor=#C73500;fillColor=#fa6800;strokeWidth=2;" edge="1" parent="1" source="30" target="47">
                    <mxGeometry relative="1" as="geometry">
                        <mxPoint x="650" y="190" as="sourcePoint"/>
                        <mxPoint x="730" y="290" as="targetPoint"/>
                        <Array as="points">
                            <mxPoint x="740" y="180"/>
                            <mxPoint x="740" y="180"/>
                        </Array>
                    </mxGeometry>
                </mxCell>
                <mxCell id="85" value="Legend" style="swimlane;strokeColor=#666666;fillColor=#f5f5f5;fontColor=#333333;strokeWidth=2;" vertex="1" parent="1">
                    <mxGeometry x="720" y="40" width="160" height="80" as="geometry">
                        <mxRectangle x="420" y="20" width="70" height="23" as="alternateBounds"/>
                    </mxGeometry>
                </mxCell>
                <mxCell id="86" value="&lt;b&gt;FROM&lt;br&gt;&lt;br&gt;COPY&lt;/b&gt;" style="text;html=1;align=center;verticalAlign=middle;resizable=0;points=[];autosize=1;" vertex="1" parent="85">
                    <mxGeometry x="12" y="24" width="50" height="50" as="geometry"/>
                </mxCell>
                <mxCell id="89" style="edgeStyle=orthogonalEdgeStyle;rounded=0;orthogonalLoop=1;jettySize=auto;html=1;entryX=0;entryY=0;entryDx=0;entryDy=0;strokeColor=#FFFFFF;fillColor=#fa6800;strokeWidth=4;dashed=1;dashPattern=1 1;" edge="1" parent="1">
                    <mxGeometry relative="1" as="geometry">
                        <mxPoint x="787" y="104" as="sourcePoint"/>
                        <mxPoint x="867" y="103.5" as="targetPoint"/>
                        <Array as="points">
                            <mxPoint x="847" y="103.5"/>
                            <mxPoint x="847" y="103.5"/>
                        </Array>
                    </mxGeometry>
                </mxCell>
                <mxCell id="90" style="edgeStyle=orthogonalEdgeStyle;rounded=0;orthogonalLoop=1;jettySize=auto;html=1;entryX=0;entryY=0;entryDx=0;entryDy=0;strokeColor=#FFFFFF;fillColor=#fa6800;strokeWidth=4;" edge="1" parent="1">
                    <mxGeometry relative="1" as="geometry">
                        <mxPoint x="787" y="77" as="sourcePoint"/>
                        <mxPoint x="867" y="76.5" as="targetPoint"/>
                        <Array as="points">
                            <mxPoint x="847" y="76.5"/>
                            <mxPoint x="847" y="76.5"/>
                        </Array>
                    </mxGeometry>
                </mxCell>
            </root>
        </mxGraphModel>
    </diagram>
</mxfile>